#!OML:ASF \\Waltz\H\Terrain\Patient Classification 1\Animal2\Wednesday\Animal2.ASF
:FULLY-SPECIFIED
:DEGREES
1196
root 10.5777 17.193 4.27122 7.74052 0.678517 -4.98003
lowerback 18.1061 -3.58185 0.398775
upperback 6.5066 -4.56095 0.827043
thorax -3.09677 -2.25601 1.57128
lowerneck 10.4753 6.97771 14.7319
upperneck -13.8328 9.12084 -20.6799
head -4.02603 5.28108 -9.58955
rclavicle 3.73715e-014 -4.77083e-015
rhumerus -22.9093 2.26267 -72.8808
rradius 122.439
rwrist 19.9094
rhand -9.26644 19.9198
rfingers 7.12502
rthumb 16.6899 -9.38268
lclavicle 3.73715e-014 -4.77083e-015
lhumerus -29.6339 -2.03034 59.0953
lradius 119.069
lwrist 26.9753
lhand -43.2591 27.0578
lfingers 7.12502
lthumb -16.1078 56.4084
rfemur -48.8058 -6.6069 19.2254
rtibia 67.8215
rfoot -5.54991 -6.52491
rtoes 27.541
lfemur -34.8858 4.71362 -11.3311
ltibia 55.589
lfoot -15.659 -11.527
ltoes -25.94
1197
root 10.6084 17.1219 4.20108 7.63198 0.352769 -4.40252
lowerback 17.914 -3.50069 -0.373406
upperback 6.44743 -4.59827 0.624612
thorax -3.01606 -2.28067 1.78705
lowerneck 10.834 7.0025 14.9089
upperneck -14.3184 9.14228 -20.9524
head -4.20007 5.32116 -9.76474
rclavicle 7.95139e-015 -3.18055e-015
rhumerus -22.6137 2.39406 -73.1843
rradius 122.861
rwrist 19.2852
rhand -10.3203 19.3265
rfingers 7.12502
rthumb 15.6752 -10.0586
lclavicle 7.95139e-015 -3.18055e-015
lhumerus -30.2092 -2.38764 59.9471
lradius 117.72
lwrist 26.7834
lhand -42.2182 26.8476
lfingers 7.12502
lthumb -15.1053 56.2765
rfemur -48.7342 -6.83534 18.0782
rtibia 70.0472
rfoot -6.17213 -5.84899
rtoes 28.5232
lfemur -34.834 4.43706 -12.1627
ltibia 55.6145
lfoot -16.5607 -10.7666
ltoes -26.7784
1198
root 10.6366 17.0621 4.13596 7.43965 0.0406194 -3.83424
lowerback 17.7223 -3.35273 -1.11238
upperback 6.51779 -4.53732 0.455397
thorax -2.79955 -2.25999 1.99444
lowerneck 10.7358 7.00565 14.8734
upperneck -14.5809 9.09679 -20.9878
head -4.26763 5.30076 -9.78088
rclavicle -7.15625e-015 -9.54166e-015
rhumerus -22.1493 2.15559 -73.3573
rradius 123.318
rwrist 18.9287
rhand -11.0231 18.8299
rfingers 7.12502
rthumb 14.9982 -10.6069
lclavicle -7.15625e-015 -9.54166e-015
lhumerus -30.5231 -2.68789 60.8456
lradius 116.195
lwrist 26.5555
lhand -40.9652 27.1261
lfingers 7.12502
lthumb -13.8981 56.6417
rfemur -48.4254 -7.10534 16.9628
rtibia 72.1434
rfoot -6.62559 -5.33448
rtoes 28.1968
lfemur -34.756 4.23377 -12.9958
ltibia 55.7277
lfoot -17.4612 -10
ltoes -27.2738
1199
root 10.6628 17.0069 4.0753 7.15159 -0.143909 -3.51167
lowerback 17.6734 -3.22411 -1.52732
upperback 6.5964 -4.44185 0.366263
thorax -2.6694 -2.21934 2.10805
lowerneck 10.2561 6.97837 14.5162
upperneck -14.4668 9.00027 -20.616
head -4.21041 5.22248 -9.55573
rclavicle 1.43125e-014 -3.97569e-015
rhumerus -21.9441 1.7698 -73.3884
rradius 123.919
rwrist 18.7514
rhand -11.8221 18.8138
rfingers 7.12502
rthumb 14.2284 -10.6789
lclavicle 1.43125e-014 -3.97569e-015
lhumerus -30.8819 -2.95992 61.8006
lradius 114.671
lwrist 26.2577
lhand -39.7735 28.1395
lfingers 7.12502
lthumb -12.7495 57.7302
rfemur -47.8855 -7.31196 16.1215
rtibia 74.0012
rfoot -7.07266 -5.07645
rtoes 25.8675
lfemur -34.6187 4.14197 -13.5904
ltibia 55.818
lfoot -18.3302 -9.34776
ltoes -27.2813
1200
root 10.6892 16.9516 4.00856 6.98802 -0.323522 -3.30191
lowerback 17.5375 -3.1453 -1.79407
upperback 6.64664 -4.38514 0.281789
thorax -2.53394 -2.1966 2.14696
lowerneck 9.86544 6.93646 14.3397
upperneck -14.3516 8.90573 -20.4101
head -4.14755 5.15206 -9.42482
rclavicle 4.09496e-014 -7.95139e-016
rhumerus -21.7783 1.49277 -73.476
rradius 124.395
rwrist 18.3454
rhand -12.2479 18.9249
rfingers 7.12502
rthumb 13.8181 -10.5961
lclavicle 4.09496e-014 -7.95139e-016
lhumerus -31.4823 -3.17276 62.7051
lradius 113.389
lwrist 26.3204
lhand -39.0461 29.2553
lfingers 7.12502
lthumb -12.0481 58.8885
rfemur -47.4361 -7.45418 15.4176
rtibia 75.6486
rfoot -7.503 -4.70751
rtoes 24.6726
lfemur -34.6756 3.95118 -13.9961
ltibia 55.9348
lfoot -19.0383 -8.66443
ltoes -26.2674
1201
root 10.7153 16.9102 3.93963 6.72884 -0.608558 -3.28234
lowerback 17.6007 -3.00622 -1.93644
upperback 6.615 -4.22873 0.305652
thorax -2.59532 -2.12047 2.22791
lowerneck 9.92526 6.90424 14.4056
upperneck -14.3823 8.86068 -20.5288
head -4.16469 5.13729 -9.48236
rclavicle -3.37934e-014 8.74653e-015
rhumerus -21.6766 1.29572 -73.4799
rradius 124.7
rwrist 17.733
rhand -12.4726 18.7334
rfingers 7.12502
rthumb 13.6015 -10.8022
lclavicle -3.37934e-014 8.74653e-015
lhumerus -32.2633 -3.49567 63.8291
lradius 112.167
lwrist 26.8214
lhand -38.8107 30.1468
lfingers 7.12502
lthumb -11.8211 59.7932
rfemur -46.7348 -7.36673 14.9199
rtibia 77.0177
rfoot -7.93674 -4.25787
rtoes 25.3083
lfemur -34.6349 3.63443 -14.0524
ltibia 56.0775
lfoot -19.5342 -7.92918
ltoes -25.1868
1202
root 10.7401 16.8761 3.87637 6.39386 -0.835561 -3.32605
lowerback 17.737 -2.83763 -1.85272
upperback 6.573 -3.99799 0.324847
thorax -2.7272 -2.00336 2.16778
lowerneck 10.0979 6.8714 14.4442
upperneck -14.4112 8.8226 -20.6544
head -4.20116 5.13282 -9.54474
rclavicle 1.51076e-014 -1.43125e-014
rhumerus -21.7585 0.990255 -73.506
rradius 125.035
rwrist 17.1339
rhand -12.7143 18.3316
rfingers 7.12502
rthumb 13.3685 -11.2195
lclavicle 1.51076e-014 -1.43125e-014
lhumerus -32.9639 -4.03932 65.0854
lradius 111.103
lwrist 27.7095
lhand -38.5109 31.0754
lfingers 7.12502
lthumb -11.532 60.7382
rfemur -45.8035 -7.27496 14.5064
rtibia 78.1841
rfoot -8.24412 -3.81822
rtoes 25.7304
lfemur -34.5341 3.37299 -14.0546
ltibia 56.2439
lfoot -19.8808 -7.29371
ltoes -25.4891
1203
root 10.763 16.8405 3.8136 6.2057 -1.05245 -3.52719
lowerback 17.4599 -2.74881 -1.40532
upperback 6.73413 -3.81058 0.207995
thorax -2.45931 -1.9102 1.7369
lowerneck 9.92396 6.86902 14.6108
upperneck -14.3985 8.82126 -20.7252
head -4.15364 5.12164 -9.58565
rclavicle -3.49861e-014 -1.82882e-014
rhumerus -21.6687 0.700922 -73.9469
rradius 125.384
rwrist 16.5371
rhand -12.9832 18.065
rfingers 7.12502
rthumb 13.1094 -11.5029
lclavicle -3.49861e-014 -1.82882e-014
lhumerus -33.5695 -4.33446 66.0415
lradius 110.246
lwrist 28.5052
lhand -38.058 31.4249
lfingers 7.12502
lthumb -11.0952 61.1116
rfemur -44.963 -7.09336 14.3256
rtibia 79.1736
rfoot -8.22268 -3.56804
rtoes 25.2578
lfemur -34.6868 3.29511 -13.9209
ltibia 56.4634
lfoot -19.9276 -6.81162
ltoes -25.8508
1204
root 10.783 16.8169 3.74675 5.91744 -1.32841 -3.56937
lowerback 17.3129 -2.68189 -1.2226
upperback 6.93962 -3.69992 0.0148039
thorax -2.19406 -1.85592 1.39598
lowerneck 9.70179 6.90444 14.9276
upperneck -14.3701 8.90292 -20.7118
head -4.07447 5.13568 -9.61851
rclavicle 2.78299e-015 -1.03368e-014
rhumerus -21.4625 0.739512 -74.5329
rradius 125.636
rwrist 15.8515
rhand -13.2637 18.1058
rfingers 7.12502
rthumb 12.839 -11.4793
lclavicle 2.78299e-015 -1.03368e-014
lhumerus -34.4144 -4.33395 66.7612
lradius 109.436
lwrist 29.2397
lhand -38.0671 31.218
lfingers 7.12502
lthumb -11.104 60.9043
rfemur -43.9551 -6.75412 13.9892
rtibia 79.9499
rfoot -8.30837 -3.38477
rtoes 25.0791
lfemur -34.6858 3.17491 -13.9196
ltibia 56.6439
lfoot -19.9568 -6.30847
ltoes -25.954
1205
root 10.7991 16.8101 3.67546 5.57979 -1.58396 -3.53709
lowerback 17.4653 -2.52788 -1.22711
upperback 6.9988 -3.50415 -0.0469845
thorax -2.22058 -1.75864 1.3035
lowerneck 9.77201 6.85312 15.0189
upperneck -14.3907 8.86037 -20.6535
head -4.10002 5.1087 -9.62027
rclavicle 2.78299e-014 -8.74653e-015
rhumerus -21.3971 0.835853 -74.7396
rradius 125.873
rwrist 15.0922
rhand -13.0929 17.8872
rfingers 7.12502
rthumb 13.0036 -11.6875
lclavicle 2.78299e-014 -8.74653e-015
lhumerus -35.4796 -4.58525 67.721
lradius 108.955
lwrist 30.6282
lhand -38.3822 33.0715
lfingers 7.12502
lthumb -11.4079 62.7411
rfemur -42.8637 -6.42101 13.6454
rtibia 80.5006
rfoot -8.36152 -3.24012
rtoes 24.1136
lfemur -34.5714 3.01458 -13.9769
ltibia 56.7624
lfoot -20.1138 -5.9278
ltoes -26.4139
